<svg width="24" height="24" viewBox="0 0 24 24" fill="none" xmlns="http://www.w3.org/2000/svg">
<g id="chevron-up">
<path id="Icon color" d="M19.8924 7.713C19.9641 7.78475 20 7.88042 20 8C20 8.11958 19.9641 8.21525 19.8924 8.287L12.287 15.8924C12.2152 15.9641 12.1196 16 12 16C11.8804 16 11.7848 15.9641 11.713 15.8924L4.10762 8.28699C4.03588 8.21525 4 8.11958 4 8C4 7.88042 4.03588 7.78475 4.10762 7.713L4.39462 7.42601C4.46637 7.35426 4.56203 7.31838 4.68161 7.31838C4.8012 7.31838 4.90882 7.35426 5.00448 7.42601L12 14.4574L18.9955 7.42601C19.0912 7.35426 19.1988 7.31839 19.3184 7.31839C19.438 7.31839 19.5336 7.35426 19.6054 7.42601L19.8924 7.713Z" fill="#34383C"/>
</g>
</svg>
