<svg width="24" height="24" viewBox="0 0 24 24" fill="none" xmlns="http://www.w3.org/2000/svg">
<g id="user-headset">
<path id="Vector" d="M15 15H14.8531C14.4731 15 14.1031 15.0906 13.7437 15.2125C12.6125 15.5963 11.3863 15.5963 10.255 15.2125C9.89625 15.0906 9.52719 15.0006 9.14813 15.0006H9C7.93924 15.0006 6.92192 15.422 6.17179 16.172C5.42167 16.922 5.00017 17.9392 5 19C5 19.2652 5.10536 19.5196 5.29289 19.7071C5.48043 19.8946 5.73478 20 6 20H18C18.2652 20 18.5196 19.8946 18.7071 19.7071C18.8946 19.5196 19 19.2652 19 19C19 17.9391 18.5786 16.9217 17.8284 16.1716C17.0783 15.4214 16.0609 15 15 15ZM6 19C6.00083 18.2046 6.31716 17.442 6.87959 16.8796C7.44202 16.3172 8.2046 16.0008 9 16H9.14813C9.36438 16 9.61437 16.0506 9.93437 16.1591C11.2736 16.6132 12.7252 16.6132 14.0644 16.1591C14.3866 16.05 14.6372 15.9994 14.8531 15.9994H15C15.7954 16.0002 16.558 16.3165 17.1204 16.879C17.6828 17.4414 17.9992 18.204 18 18.9994L6 19ZM6.5 11C6.63261 11 6.75979 10.9473 6.85355 10.8536C6.94732 10.7598 7 10.6326 7 10.5V10C7 7.24312 9.24312 5 12 5C14.7569 5 17 7.24312 17 10V10.5C16.9993 11.1628 16.7356 11.7983 16.2669 12.2669C15.7983 12.7356 15.1628 12.9993 14.5 13H13.5C13.5 12.7348 13.3946 12.4804 13.2071 12.2929C13.0196 12.1054 12.7652 12 12.5 12H11.5C11.2348 12 10.9804 12.1054 10.7929 12.2929C10.6054 12.4804 10.5 12.7348 10.5 13C10.5 13.2652 10.6054 13.5196 10.7929 13.7071C10.9804 13.8946 11.2348 14 11.5 14H14.5C15.4279 13.9988 16.3175 13.6297 16.9736 12.9736C17.6297 12.3175 17.9988 11.4279 18 10.5V10C18 6.69125 15.3088 4 12 4C8.69125 4 6 6.69125 6 10V10.5C6 10.6326 6.05268 10.7598 6.14645 10.8536C6.24021 10.9473 6.36739 11 6.5 11ZM12 7C12.5794 6.99741 13.147 7.16341 13.6337 7.47774C14.1204 7.79208 14.5051 8.2412 14.741 8.77036C14.977 9.29952 15.0539 9.88589 14.9624 10.458C14.871 11.0301 14.6151 11.5633 14.2259 11.9925C14.2259 11.9953 14.23 11.9972 14.2316 12H14.5C14.7537 11.9994 15.0031 11.9344 15.2248 11.811C15.4465 11.6875 15.6331 11.5098 15.7672 11.2944C15.9062 10.8863 16 10.4556 16 10C16 8.93913 15.5786 7.92172 14.8284 7.17157C14.0783 6.42143 13.0609 6 12 6C10.9391 6 9.92172 6.42143 9.17157 7.17157C8.42143 7.92172 8 8.93913 8 10C8 11.2631 8.59688 12.375 9.51094 13.1084C9.50906 13.0719 9.5 13.0372 9.5 13C9.50225 12.6478 9.5986 12.3025 9.77906 12C9.38792 11.5713 9.13013 11.0379 9.03721 10.4651C8.9443 9.89222 9.02027 9.30471 9.25585 8.77434C9.49144 8.24397 9.87642 7.79372 10.3638 7.47861C10.8511 7.16351 11.4197 6.99719 12 7Z" fill="#34383C"/>
</g>
</svg>
