<svg width="24" height="24" viewBox="0 0 24 24" fill="none" xmlns="http://www.w3.org/2000/svg">
<g id="user">
<path id="Icon color" fill-rule="evenodd" clip-rule="evenodd" d="M12 12C14.2094 12 16 10.2094 16 8C16 5.79063 14.2094 4 12 4C9.79063 4 8 5.79063 8 8C8 10.2094 9.79063 12 12 12ZM13.762 13.204C14.1031 13.0961 14.4068 13 14.8 13C17.1187 13 19 14.8813 19 17.2V18.5C19 19.3281 18.3281 20 17.5 20H6.5C5.67188 20 5 19.3281 5 18.5V17.2C5 14.8813 6.88125 13 9.2 13C9.59494 13 9.89901 13.0963 10.2403 13.2043C10.6767 13.3425 11.174 13.5 12 13.5C12.8266 13.5 13.325 13.3423 13.762 13.204ZM17.5 19C17.775 19 18 18.775 18 18.5V17.2C18 15.4344 16.5656 14 14.8 14C14.5647 14 14.3295 14.0738 14.0397 14.1646C13.575 14.3103 12.9701 14.5 12 14.5C11.0276 14.5 10.4231 14.3102 9.95892 14.1645L9.95891 14.1645C9.66976 14.0737 9.43511 14 9.2 14C7.43438 14 6 15.4344 6 17.2V18.5C6 18.775 6.225 19 6.5 19H17.5ZM15 8C15 6.34687 13.6531 5 12 5C10.3469 5 9 6.34687 9 8C9 9.65312 10.3469 11 12 11C13.6531 11 15 9.65312 15 8Z" fill="#34383C"/>
</g>
</svg>
