<svg width="24" height="24" viewBox="0 0 24 24" fill="none" xmlns="http://www.w3.org/2000/svg">
<g id="briefcase-medical">
<path id="Icon color" fill-rule="evenodd" clip-rule="evenodd" d="M15 8H18.5C19.3281 8 20 8.67188 20 9.5V18.5C20 19.3281 19.3281 20 18.5 20H5.5C4.67188 20 4 19.3281 4 18.5V9.5C4 8.67188 4.67188 8 5.5 8H9V5.75C9 5.33437 9.33437 5 9.75 5H14.25C14.6656 5 15 5.33437 15 5.75V8ZM13 13H14.75C14.8875 13 15 13.1125 15 13.25V14.75C15 14.8875 14.8875 15 14.75 15H13V16.75C13 16.8875 12.8875 17 12.75 17H11.25C11.1125 17 11 16.8875 11 16.75V15H9.25C9.1125 15 9 14.8875 9 14.75V13.25C9 13.1125 9.1125 13 9.25 13H11V11.25C11 11.1125 11.1125 11 11.25 11H12.75C12.8875 11 13 11.1125 13 11.25V13ZM10 6H14V8H10V6ZM18.5 19C18.775 19 19 18.775 19 18.5V9.5C19 9.225 18.775 9 18.5 9H5.5C5.225 9 5 9.225 5 9.5V18.5C5 18.775 5.225 19 5.5 19H18.5Z" fill="#34383C"/>
</g>
</svg>
