<svg width="18" height="16" viewBox="0 0 18 16" fill="none" xmlns="http://www.w3.org/2000/svg">
<g id="Union">
<path fill-rule="evenodd" clip-rule="evenodd" d="M10.3672 0.5H1.92969C1.13867 0.5 0.523438 1.14453 0.523438 1.90625V2.84375C0.523438 3.63477 1.13867 4.25 1.92969 4.25H10.3672C11.1289 4.25 11.7734 3.63477 11.7734 2.84375V1.90625C11.7734 1.14453 11.1289 0.5 10.3672 0.5ZM1.92969 1.4375H10.3672C10.6016 1.4375 10.8359 1.67188 10.8359 1.90625V2.84375C10.8359 3.10742 10.6016 3.3125 10.3672 3.3125H1.92969C1.66602 3.3125 1.46094 3.10742 1.46094 2.84375V1.90625C1.46094 1.67188 1.66602 1.4375 1.92969 1.4375Z" fill="#34383C"/>
<path d="M2.39844 6.125V5.1875H1.46094V13.625C1.46094 14.6797 2.28125 15.5 3.33594 15.5H8.96094C9.2832 15.5 9.60547 15.4121 9.86914 15.2656C9.60547 15.0605 9.37109 14.8262 9.16602 14.5625H3.33594C2.80859 14.5625 2.39844 14.1523 2.39844 13.625V12.6875H4.74219C4.97656 12.6875 5.21094 12.4824 5.21094 12.2188C5.21094 11.9844 4.97656 11.75 4.74219 11.75H2.39844V9.875H4.74219C4.97656 9.875 5.21094 9.66992 5.21094 9.40625C5.21094 9.17188 4.97656 8.9375 4.74219 8.9375H2.39844V7.0625H4.74219C4.97656 7.0625 5.21094 6.85742 5.21094 6.59375C5.21094 6.35938 4.97656 6.125 4.74219 6.125H2.39844Z" fill="#34383C"/>
<path d="M10.8359 6.71094V5.1875H9.89844V7.32617C10.1621 7.0918 10.4844 6.85742 10.8359 6.71094Z" fill="#34383C"/>
<path d="M15.0045 7.82821C15.5671 8.16225 16.0385 8.62304 16.3841 9.16917L16.589 8.30485C16.6463 8.06302 16.8888 7.91346 17.1307 7.97079C17.3725 8.02811 17.5221 8.27063 17.4647 8.51245L17.0273 10.3576C16.9413 10.7204 16.5775 10.9447 16.2148 10.8587L14.3696 10.4213C14.1278 10.364 13.9782 10.1215 14.0356 9.87964C14.0929 9.63781 14.3354 9.48825 14.5772 9.54557L15.6051 9.78924C15.3382 9.33374 14.959 8.95028 14.5001 8.67776C13.8847 8.31234 13.1628 8.16835 12.4543 8.2697C11.7457 8.37105 11.0932 8.71164 10.6049 9.23495C10.1166 9.75825 9.82194 10.4328 9.76982 11.1466C9.71771 11.8605 9.91127 12.5707 10.3184 13.1593C10.7255 13.748 11.3217 14.1798 12.0079 14.383C12.6942 14.5861 13.4294 14.5485 14.0913 14.2763C14.6001 14.0672 15.0422 13.7291 15.3761 13.2991C15.5434 13.0836 15.841 12.9932 16.0801 13.1247C16.3191 13.2562 16.4087 13.5588 16.2496 13.7804C15.801 14.4053 15.1845 14.8952 14.4671 15.1902C13.5966 15.5481 12.6299 15.5975 11.7275 15.3303C10.825 15.0632 10.0411 14.4954 9.50573 13.7213C8.9704 12.9472 8.71587 12.0134 8.7844 11.0747C8.85293 10.136 9.24039 9.24901 9.88248 8.56088C10.5246 7.87275 11.3827 7.42488 12.3143 7.29161C13.246 7.15834 14.1953 7.34768 15.0045 7.82821Z" fill="#34383C"/>
</g>
</svg>
