<svg width="24" height="24" viewBox="0 0 24 24" fill="none" xmlns="http://www.w3.org/2000/svg">
<g id="chevron-right">
<path id="Icon color" d="M8.39462 4.10762C8.46637 4.03587 8.56203 4 8.68161 4C8.8012 4 8.89686 4.03587 8.96861 4.10762L16.574 11.713C16.6457 11.7848 16.6816 11.8804 16.6816 12C16.6816 12.1196 16.6457 12.2152 16.574 12.287L8.96861 19.8924C8.89686 19.9641 8.8012 20 8.68161 20C8.56203 20 8.46637 19.9641 8.39462 19.8924L8.10762 19.6054C8.03587 19.5336 8 19.438 8 19.3184C8 19.1988 8.03587 19.0912 8.10762 18.9955L15.139 12L8.10762 5.00448C8.03587 4.90882 8 4.8012 8 4.68161C8 4.56203 8.03587 4.46637 8.10762 4.39462L8.39462 4.10762Z" fill="#34383C"/>
</g>
</svg>
