<svg width="24" height="24" viewBox="0 0 24 24" fill="none" xmlns="http://www.w3.org/2000/svg">
<g id="search">
<path id="Icon color" fill-rule="evenodd" clip-rule="evenodd" d="M15.8588 15.0182L19.8898 19.0493C20.0367 19.1961 20.0367 19.4336 19.8898 19.5805L19.5805 19.8898C19.4336 20.0367 19.1961 20.0367 19.0493 19.8898L15.0182 15.8588C14.9495 15.7869 14.9088 15.6932 14.9088 15.5932V15.2744C13.7495 16.3431 12.2027 16.9994 10.4997 16.9994C6.90923 16.9994 4 14.0901 4 10.4997C4 6.90923 6.90923 4 10.4997 4C14.0901 4 16.9994 6.90923 16.9994 10.4997C16.9994 12.2027 16.3431 13.7495 15.2713 14.9088H15.5932C15.6932 14.9088 15.7869 14.9463 15.8588 15.0182ZM4.99995 10.4997C4.99995 13.5402 7.45921 15.9994 10.4997 15.9994C13.5402 15.9994 15.9994 13.5402 15.9994 10.4997C15.9994 7.45921 13.5402 4.99995 10.4997 4.99995C7.45921 4.99995 4.99995 7.45921 4.99995 10.4997Z" fill="#34383C"/>
</g>
</svg>
